<svg xmlns="http://www.w3.org/2000/svg"  viewBox="0 0 64 64" width="64px" height="64px"><path fill="#f283a5" d="M44.788,28.602c0.055-1.815-0.344-3.585-1.245-5.144L31.906,3.301 c-2.338,3.628-2.613,7.85-0.738,11.157l8.061,13.963c2.138,3.703,2.115,8.295-0.061,12.112L31.36,27.008c-0.005,0-0.011,0-0.016,0 l-6.51-11.276c-2.113,3.706-2.178,8.137-0.223,11.782c-0.012,0.002-0.023,0.004-0.035,0.006l7.557,13.088 c2.072,3.589,1.988,8.077-0.221,11.834L19.313,30.624c-0.337-0.583-0.595-1.196-0.818-1.82C9.857,31.272,4,36.029,4,41.5 C4,49.508,16.536,56,32,56s28-6.492,28-14.5C60,35.879,53.819,31.008,44.788,28.602z"/><path fill="#ed7899" d="M59.692,41.783c0.47-5.617-4.203-2.579-4.68-0.478c-0.766,3.372-6.011,6.701-9.265,7.832	c-3.962,1.378-10.602,1.242-10.602,6.686c3.636,0.101,8.43-0.665,11.936-1.996C53.209,51.502,58.904,47.06,59.692,41.783z"/><path fill="#8d6c9f" d="M32,57C15.738,57,3,50.191,3,41.5c0-5.741,5.832-10.975,15.22-13.658 c0.507-0.138,1.04,0.129,1.217,0.626c0.236,0.66,0.472,1.187,0.742,1.655l11.659,20.193c1.204-3.055,1.02-6.452-0.572-9.208 L23.709,28.02c-0.051-0.089-0.088-0.184-0.109-0.281c-2.001-3.929-1.87-8.58,0.365-12.501c0.178-0.313,0.507-0.499,0.869-0.505 c0.357,0,0.688,0.19,0.866,0.5l6.433,11.144c0.035,0.041,0.066,0.086,0.093,0.133l6.853,11.868 c1.168-3.116,0.932-6.604-0.715-9.456l-8.061-13.962c-2.05-3.617-1.756-8.289,0.764-12.199c0.189-0.293,0.531-0.449,0.865-0.458 c0.349,0.009,0.667,0.198,0.842,0.5L44.41,22.958c0.838,1.452,1.308,3.126,1.375,4.881C55.192,30.526,61,35.72,61,41.5 C61,50.191,48.262,57,32,57z M17.899,30.024C9.917,32.504,5,36.855,5,41.5C5,48.944,17.112,55,32,55s27-6.056,27-13.5 c0-4.906-5.679-9.59-14.469-11.933c-0.449-0.119-0.756-0.532-0.742-0.996c0.051-1.671-0.333-3.266-1.112-4.613L31.924,5.333 c-1.361,2.935-1.34,6.067,0.114,8.633l8.057,13.955c2.301,3.985,2.279,9.008-0.059,13.107c-0.177,0.312-0.508,0.504-0.866,0.505 c-0.001,0-0.002,0-0.003,0c-0.357,0-0.688-0.19-0.866-0.5l-7.731-13.392c-0.035-0.041-0.066-0.086-0.093-0.133l-5.556-9.624 c-1.136,3.007-0.951,6.32,0.57,9.156c0.036,0.067,0.064,0.139,0.084,0.211l7.422,12.856c2.239,3.878,2.152,8.798-0.226,12.841 c-0.18,0.306-0.507,0.493-0.862,0.493c-0.001,0-0.002,0-0.004,0c-0.356-0.001-0.684-0.191-0.862-0.5L18.447,31.123 C18.25,30.782,18.071,30.423,17.899,30.024z"/><path fill="#8d6c9f" d="M6,23c-0.552,0-1-0.447-1-1v-2c0-0.553,0.448-1,1-1s1,0.447,1,1v2C7,22.553,6.552,23,6,23z"/><path fill="#8d6c9f" d="M11,23c-0.552,0-1-0.447-1-1v-2c0-0.553,0.448-1,1-1s1,0.447,1,1v2C12,22.553,11.552,23,11,23z"/><path fill="#8d6c9f" d="M16,23c-0.552,0-1-0.447-1-1v-2c0-0.553,0.448-1,1-1s1,0.447,1,1v2C17,22.553,16.552,23,16,23z"/><g><path fill="#8d6c9f" d="M49,23c-0.552,0-1-0.447-1-1v-2c0-0.553,0.448-1,1-1s1,0.447,1,1v2C50,22.553,49.552,23,49,23z"/><path fill="#8d6c9f" d="M54,23c-0.552,0-1-0.447-1-1v-2c0-0.553,0.448-1,1-1s1,0.447,1,1v2C55,22.553,54.552,23,54,23z"/><path fill="#8d6c9f" d="M59,23c-0.552,0-1-0.447-1-1v-2c0-0.553,0.448-1,1-1s1,0.447,1,1v2C60,22.553,59.552,23,59,23z"/></g><g><path fill="#8d6c9f" d="M37.932,51.665c-0.5,0-0.932-0.375-0.992-0.884c-0.064-0.549,0.329-1.045,0.877-1.109 c0.993-0.116,1.97-0.262,2.904-0.432c0.549-0.103,1.064,0.261,1.164,0.804c0.099,0.544-0.261,1.064-0.804,1.163 c-0.976,0.179-1.996,0.33-3.031,0.451C38.01,51.663,37.971,51.665,37.932,51.665z M45.751,50.017c-0.422,0-0.814-0.269-0.951-0.691 c-0.17-0.525,0.117-1.089,0.642-1.26C50.801,46.325,54,43.684,54,41c0-0.934-0.386-1.868-1.147-2.778 c-0.354-0.424-0.298-1.054,0.125-1.408c0.422-0.355,1.054-0.298,1.409,0.125C55.457,38.218,56,39.584,56,41 c0,3.647-3.623,6.916-9.94,8.968C45.957,50.001,45.853,50.017,45.751,50.017z"/></g></svg>